<?xml version="1.0" standalone="no"?>
<!DOCTYPE svg PUBLIC "-//W3C//DTD SVG 1.1//EN" "http://www.w3.org/Graphics/SVG/1.1/DTD/svg11.dtd" >
<svg xmlns="http://www.w3.org/2000/svg">
<metadata>
This is a custom SVG webfont generated by Font Squirrel.
Copyright   : Copyright
</metadata>
<defs>
<font id="NewRegular" horiz-adv-x="784" >
<font-face units-per-em="2048" ascent="1638" descent="-410" />
<missing-glyph horiz-adv-x="500" />
<glyph unicode=" " d="M0 0v1536h52v-1536h-52zM192 0v1536h140v-1536h-140zM384 0v1536h52v-1536h-52zM488 0v1536h140v-1536h-140zM680 0v1536h52v-1536h-52z" />
<glyph unicode="$" d="M0 0v1536h52v-1536h-52zM192 0v1536h52v-1536h-52zM384 0v1536h52v-1536h-52zM576 0v1536h52v-1536h-52zM680 0v1536h52v-1536h-52z" />
<glyph unicode="%" d="M0 0v1536h52v-1536h-52zM104 0v1536h52v-1536h-52zM296 0v1536h52v-1536h-52zM488 0v1536h52v-1536h-52zM680 0v1536h52v-1536h-52z" />
<glyph unicode="*" d="M0 0v1536h52v-1536h-52zM192 0v1536h52v-1536h-52zM296 0v1536h140v-1536h-140zM488 0v1536h140v-1536h-140zM680 0v1536h52v-1536h-52z" />
<glyph unicode="+" d="M0 0v1536h52v-1536h-52zM192 0v1536h52v-1536h-52zM296 0v1536h52v-1536h-52zM488 0v1536h52v-1536h-52zM680 0v1536h52v-1536h-52z" />
<glyph unicode="-" d="M0 0v1536h52v-1536h-52zM192 0v1536h52v-1536h-52zM296 0v1536h52v-1536h-52zM400 0v1536h140v-1536h-140zM592 0v1536h140v-1536h-140z" />
<glyph unicode="." d="M0 0v1536h140v-1536h-140zM280 0v1536h52v-1536h-52zM384 0v1536h52v-1536h-52zM488 0v1536h140v-1536h-140zM680 0v1536h52v-1536h-52z" />
<glyph unicode="/" d="M0 0v1536h52v-1536h-52zM192 0v1536h52v-1536h-52zM384 0v1536h52v-1536h-52zM488 0v1536h52v-1536h-52zM680 0v1536h52v-1536h-52z" />
<glyph unicode="0" d="M0 0v1536h52v-1536h-52zM104 0v1536h52v-1536h-52zM296 0v1536h140v-1536h-140zM488 0v1536h140v-1536h-140zM680 0v1536h52v-1536h-52z" />
<glyph unicode="1" d="M0 0v1536h140v-1536h-140zM192 0v1536h52v-1536h-52zM384 0v1536h52v-1536h-52zM488 0v1536h52v-1536h-52zM592 0v1536h140v-1536h-140z" />
<glyph unicode="2" d="M0 0v1536h52v-1536h-52zM104 0v1536h140v-1536h-140zM384 0v1536h52v-1536h-52zM488 0v1536h52v-1536h-52zM592 0v1536h140v-1536h-140z" />
<glyph unicode="3" d="M0 0v1536h140v-1536h-140zM192 0v1536h140v-1536h-140zM472 0v1536h52v-1536h-52zM576 0v1536h52v-1536h-52zM680 4v1536h52v-1536h-52z" />
<glyph unicode="4" d="M0 0v1536h52v-1536h-52zM104 0v1536h52v-1536h-52zM296 0v1536h140v-1536h-140zM488 0v1536h52v-1536h-52zM592 0v1536h140v-1536h-140z" />
<glyph unicode="5" d="M0 0v1536h140v-1536h-140zM192 0v1536h52v-1536h-52zM384 0v1536h140v-1536h-140zM576 0v1536h52v-1536h-52zM680 0v1536h52v-1536h-52z" />
<glyph unicode="6" d="M0 0v1536h52v-1536h-52zM104 0v1536h140v-1536h-140zM384 0v1536h140v-1536h-140zM576 0v1536h52v-1536h-52zM680 0v1536h52v-1536h-52z" />
<glyph unicode="7" d="M0 0v1536h52v-1536h-52zM104 0v1536h52v-1536h-52zM296 0v1536h52v-1536h-52zM400 0v1536h140v-1536h-140zM592 0v1536h140v-1536h-140z" />
<glyph unicode="8" d="M0 0v1536h140v-1536h-140zM192 0v1536h52v-1536h-52zM384 0v1536h52v-1536h-52zM488 0v1536h140v-1536h-140zM680 0v1536h52v-1536h-52z" />
<glyph unicode="9" d="M0 0v1536h52v-1536h-52zM104 0v1536h140v-1536h-140zM384 0v1536h52v-1536h-52zM488 0v1536h140v-1536h-140zM680 0v1536h52v-1536h-52z" />
<glyph unicode="A" d="M0 0v1536h140v-1536h-140zM192 0v1536h52v-1536h-52zM296 0v1536h52v-1536h-52zM488 0v1536h52v-1536h-52zM592 0v1536h140v-1536h-140z" />
<glyph unicode="B" d="M0 0v1536h52v-1536h-52zM104 0v1536h140v-1536h-140zM296 0v1536h52v-1536h-52zM488 0v1536h52v-1536h-52zM592 0v1536h140v-1536h-140z" />
<glyph unicode="C" d="M0 0v1536h140v-1536h-140zM192 0v1536h140v-1536h-140zM384 0v1536h52v-1536h-52zM576 0v1536h52v-1536h-52zM680 0v1536h52v-1536h-52z" />
<glyph unicode="D" d="M0 0v1536h52v-1536h-52zM104 0v1536h52v-1536h-52zM208 0v1536h140v-1536h-140zM488 0v1536h52v-1536h-52zM592 0v1536h140v-1536h-140z" />
<glyph unicode="E" d="M0 0v1536h140v-1536h-140zM192 0v1536h52v-1536h-52zM296 0v1536h140v-1536h-140zM576 0v1536h52v-1536h-52zM680 0v1536h52v-1536h-52z" />
<glyph unicode="F" d="M0 0v1536h52v-1536h-52zM104 0v1536h140v-1536h-140zM296 0v1536h140v-1536h-140zM576 0v1536h52v-1536h-52zM680 0v1536h52v-1536h-52z" />
<glyph unicode="G" d="M0 0v1536h52v-1536h-52zM104 0v1536h52v-1536h-52zM208 0v1536h52v-1536h-52zM400 0v1536h140v-1536h-140zM592 0v1536h140v-1536h-140z" />
<glyph unicode="H" d="M0 0v1536h140v-1536h-140zM192 0v1536h52v-1536h-52zM296 0v1536h52v-1536h-52zM488 0v1536h140v-1536h-140zM680 0v1536h52v-1536h-52z" />
<glyph unicode="I" d="M0 0v1536h52v-1536h-52zM104 0v1536h140v-1536h-140zM296 0v1536h52v-1536h-52zM488 0v1536h140v-1536h-140zM680 0v1536h52v-1536h-52z" />
<glyph unicode="J" d="M0 0v1536h52v-1536h-52zM104 0v1536h52v-1536h-52zM208 0v1536h140v-1536h-140zM488 0v1536h140v-1536h-140zM680 0v1536h52v-1536h-52z" />
<glyph unicode="K" d="M0 0v1536h140v-1536h-140zM192 0v1536h52v-1536h-52zM296 0v1536h52v-1536h-52zM400 0v1536h52v-1536h-52zM592 0v1536h140v-1536h-140z" />
<glyph unicode="L" d="M0 0v1536h52v-1536h-52zM104 0v1536h140v-1536h-140zM296 0v1536h52v-1536h-52zM400 0v1536h52v-1536h-52zM592 0v1536h140v-1536h-140z" />
<glyph unicode="M" d="M0 0v1536h140v-1536h-140zM192 0v1536h140v-1536h-140zM384 0v1536h52v-1536h-52zM488 0v1536h52v-1536h-52zM680 0v1536h52v-1536h-52z" />
<glyph unicode="N" d="M0 0v1536h52v-1536h-52zM104 0v1536h52v-1536h-52zM208 0v1536h140v-1536h-140zM400 0v1536h52v-1536h-52zM592 0v1536h140v-1536h-140z" />
<glyph unicode="O" d="M0 0v1536h140v-1536h-140zM192 0v1536h52v-1536h-52zM296 0v1536h140v-1536h-140zM488 0v1536h52v-1536h-52zM680 0v1536h52v-1536h-52z" />
<glyph unicode="P" d="M0 0v1536h52v-1536h-52zM104 0v1536h140v-1536h-140zM296 0v1536h140v-1536h-140zM488 0v1536h52v-1536h-52zM680 0v1536h52v-1536h-52z" />
<glyph unicode="Q" d="M0 0v1536h52v-1536h-52zM104 0v1536h52v-1536h-52zM208 0v1536h52v-1536h-52zM312 0v1536h140v-1536h-140zM592 0v1536h140v-1536h-140z" />
<glyph unicode="R" d="M0 0v1536h140v-1536h-140zM192 0v1536h52v-1536h-52zM296 0v1536h52v-1536h-52zM400 0v1536h140v-1536h-140zM680 0v1536h52v-1536h-52z" />
<glyph unicode="S" d="M0 0v1536h52v-1536h-52zM104 0v1536h140v-1536h-140zM296 0v1536h52v-1536h-52zM400 0v1536h140v-1536h-140zM680 0v1536h52v-1536h-52z" />
<glyph unicode="T" d="M0 0v1536h52v-1536h-52zM104 0v1536h52v-1536h-52zM208 0v1536h140v-1536h-140zM400 0v1536h140v-1536h-140zM680 0v1536h52v-1536h-52z" />
<glyph unicode="U" d="M0 0v1536h140v-1536h-140zM280 0v1536h52v-1536h-52zM384 0v1536h52v-1536h-52zM488 0v1536h52v-1536h-52zM592 0v1536h140v-1536h-140z" />
<glyph unicode="V" d="M0 0v1536h52v-1536h-52zM192 0v1536h140v-1536h-140zM384 0v1536h52v-1536h-52zM488 0v1536h52v-1536h-52zM592 0v1536h140v-1536h-140z" />
<glyph unicode="W" d="M0 0v1536h140v-1536h-140zM280 0v1536h140v-1536h-140zM472 0v1536h52v-1536h-52zM576 0v1536h52v-1536h-52zM680 0v1536h52v-1536h-52z" />
<glyph unicode="X" d="M0 0v1536h52v-1536h-52zM192 0v1536h52v-1536h-52zM296 0v1536h140v-1536h-140zM488 0v1536h52v-1536h-52zM592 0v1536h140v-1536h-140z" />
<glyph unicode="Y" d="M0 0v1536h140v-1536h-140zM280 0v1536h52v-1536h-52zM384 0v1536h140v-1536h-140zM576 0v1536h52v-1536h-52zM680 0v1536h52v-1536h-52z" />
<glyph unicode="Z" d="M0 0v1536h52v-1536h-52zM192 0v1536h140v-1536h-140zM384 0v1536h140v-1536h-140zM576 0v1536h52v-1536h-52zM680 0v1536h52v-1536h-52z" />
<glyph unicode="_" d="M0 0v1536h52v-1536h-52zM192 0v1536h140v-1536h-140zM384 0v1536h52v-1536h-52zM488 0v1536h140v-1536h-140zM680 0v1536h52v-1536h-52z" />
<glyph unicode="&#xa0;" d="M0 0v1536h52v-1536h-52zM192 0v1536h140v-1536h-140zM384 0v1536h52v-1536h-52zM488 0v1536h140v-1536h-140zM680 0v1536h52v-1536h-52z" />
<glyph unicode="&#xad;" d="M0 0v1536h52v-1536h-52zM192 0v1536h52v-1536h-52zM296 0v1536h52v-1536h-52zM400 0v1536h140v-1536h-140zM592 0v1536h140v-1536h-140z" />
<glyph unicode="&#xb2;" d="M0 0v1536h52v-1536h-52zM104 0v1536h140v-1536h-140zM384 0v1536h52v-1536h-52zM488 0v1536h52v-1536h-52zM592 0v1536h140v-1536h-140z" />
<glyph unicode="&#xb3;" d="M0 0v1536h140v-1536h-140zM192 0v1536h140v-1536h-140zM472 0v1536h52v-1536h-52zM576 0v1536h52v-1536h-52zM680 4v1536h52v-1536h-52z" />
<glyph unicode="&#xb9;" d="M0 0v1536h140v-1536h-140zM192 0v1536h52v-1536h-52zM384 0v1536h52v-1536h-52zM488 0v1536h52v-1536h-52zM592 0v1536h140v-1536h-140z" />
<glyph unicode="&#x152;" horiz-adv-x="1568" d="M784 0v1536h140v-1536h-140zM976 0v1536h52v-1536h-52zM1080 0v1536h140v-1536h-140zM1360 0v1536h52v-1536h-52zM1464 0v1536h52v-1536h-52zM0 0v1536h140v-1536h-140zM192 0v1536h52v-1536h-52zM296 0v1536h140v-1536h-140zM488 0v1536h52v-1536h-52zM680 0v1536h52 v-1536h-52z" />
<glyph unicode="&#x2000;" horiz-adv-x="770" />
<glyph unicode="&#x2001;" horiz-adv-x="1540" />
<glyph unicode="&#x2002;" horiz-adv-x="770" />
<glyph unicode="&#x2003;" horiz-adv-x="1540" />
<glyph unicode="&#x2004;" horiz-adv-x="513" />
<glyph unicode="&#x2005;" horiz-adv-x="385" />
<glyph unicode="&#x2006;" horiz-adv-x="256" />
<glyph unicode="&#x2007;" horiz-adv-x="256" />
<glyph unicode="&#x2008;" horiz-adv-x="192" />
<glyph unicode="&#x2009;" horiz-adv-x="308" />
<glyph unicode="&#x200a;" horiz-adv-x="85" />
<glyph unicode="&#x2010;" d="M0 0v1536h52v-1536h-52zM192 0v1536h52v-1536h-52zM296 0v1536h52v-1536h-52zM400 0v1536h140v-1536h-140zM592 0v1536h140v-1536h-140z" />
<glyph unicode="&#x2011;" d="M0 0v1536h52v-1536h-52zM192 0v1536h52v-1536h-52zM296 0v1536h52v-1536h-52zM400 0v1536h140v-1536h-140zM592 0v1536h140v-1536h-140z" />
<glyph unicode="&#x2012;" d="M0 0v1536h52v-1536h-52zM192 0v1536h52v-1536h-52zM296 0v1536h52v-1536h-52zM400 0v1536h140v-1536h-140zM592 0v1536h140v-1536h-140z" />
<glyph unicode="&#x2013;" horiz-adv-x="1024" d="M0 0v1536h972v-1536h-972z" />
<glyph unicode="&#x2014;" horiz-adv-x="2048" d="M0 0v1536h1996v-1536h-1996z" />
<glyph unicode="&#x2026;" horiz-adv-x="2352" d="M1568 0v1536h140v-1536h-140zM1848 0v1536h52v-1536h-52zM1952 0v1536h52v-1536h-52zM2056 0v1536h140v-1536h-140zM2248 0v1536h52v-1536h-52zM784 0v1536h140v-1536h-140zM1064 0v1536h52v-1536h-52zM1168 0v1536h52v-1536h-52zM1272 0v1536h140v-1536h-140zM1464 0 v1536h52v-1536h-52zM0 0v1536h140v-1536h-140zM280 0v1536h52v-1536h-52zM384 0v1536h52v-1536h-52zM488 0v1536h140v-1536h-140zM680 0v1536h52v-1536h-52z" />
<glyph unicode="&#x202f;" horiz-adv-x="308" />
<glyph unicode="&#x205f;" horiz-adv-x="385" />
<glyph unicode="&#x2122;" horiz-adv-x="1568" d="M784 0v1536h140v-1536h-140zM976 0v1536h140v-1536h-140zM1168 0v1536h52v-1536h-52zM1272 0v1536h52v-1536h-52zM1464 0v1536h52v-1536h-52zM0 0v1536h52v-1536h-52zM104 0v1536h52v-1536h-52zM208 0v1536h140v-1536h-140zM400 0v1536h140v-1536h-140zM680 0v1536h52 v-1536h-52z" />
<glyph unicode="&#xe000;" horiz-adv-x="500" d="M0 0v0v0v0v0z" />
</font>
</defs>
</svg>
